# xmcd
# 
# Track frame offsets:
#     195
#     13070
#     26195
#     41860
#     53980
#     73062
#     86492
#     97710
#     112135
#     126625
#     140152
#     154767
#     173262
#     184892
#     195750
#     208455
# 
# Disc length: 2984
# 
# Revision: 2
# Processed by: cddbd v1.5.2PL0 Copyright (c) Steve Scherf et al.
# Submitted via: fre:ac v1.0.31
# 
DISCID=ea0ba610
DTITLE=Don Williams - The Very Best of Don Williams
DYEAR=0
DGENRE=
TTITLE0=You're My Best Friend
TTITLE1=Lay Down Beside Me
TTITLE2=Till The Rivers All Run Dry
TTITLE3=Ghost Story
TTITLE4=Good Ole Boys Like Me
TTITLE5=Love Me Over Again
TTITLE6=It Must Be Love
TTITLE7=Amanda
TTITLE8=Tulsa Time
TTITLE9=The Shelter of Your Eyes
TTITLE10=She's in Love With a Rodeo Man
TTITLE11=I Believe in You
TTITLE12=Time on My Hands
TTITLE13=Turn Down the Lights (and Love Me Tonight)
TTITLE14=Some Broken Hearts Never Mend
TTITLE15=I Recall a Gypsy Woman
EXTD=
EXTT0=
EXTT1=
EXTT2=
EXTT3=
EXTT4=
EXTT5=
EXTT6=
EXTT7=
EXTT8=
EXTT9=
EXTT10=
EXTT11=
EXTT12=
EXTT13=
EXTT14=
EXTT15=
PLAYORDER=
